<?xml version="1.0" encoding="UTF-8" standalone="no"?>
<svg
   xmlns:dc="http://purl.org/dc/elements/1.1/"
   xmlns:cc="http://creativecommons.org/ns#"
   xmlns:rdf="http://www.w3.org/1999/02/22-rdf-syntax-ns#"
   xmlns:svg="http://www.w3.org/2000/svg"
   xmlns="http://www.w3.org/2000/svg"
   xmlns:sodipodi="http://sodipodi.sourceforge.net/DTD/sodipodi-0.dtd"
   xmlns:inkscape="http://www.inkscape.org/namespaces/inkscape"
   inkscape:version="1.0 (4035a4fb49, 2020-05-01)"
   sodipodi:docname="love-material-icon.svg"
   xml:space="preserve"
   enable-background="new 0 0 141.73 141.73"
   viewBox="0 0 256.00001 256.00001"
   height="256"
   width="256"
   y="0px"
   x="0px"
   id="Layer_1"
   version="1.1"><title
   id="title1125">Love Material Icon</title><metadata
   id="metadata35"><rdf:RDF><cc:Work
       rdf:about=""><dc:format>image/svg+xml</dc:format><dc:type
         rdf:resource="http://purl.org/dc/dcmitype/StillImage" /><dc:title>Love Material Icon</dc:title></cc:Work></rdf:RDF></metadata><defs
   id="defs33">
	
	

	
	
<filter
   height="1.096"
   y="-0.048"
   width="1.096"
   x="-0.048"
   id="filter1121"
   style="color-interpolation-filters:sRGB"
   inkscape:collect="always"><feGaussianBlur
     id="feGaussianBlur1123"
     stdDeviation="5.12"
     inkscape:collect="always" /></filter></defs><sodipodi:namedview
   inkscape:current-layer="Layer_1"
   inkscape:window-maximized="1"
   inkscape:window-y="32"
   inkscape:window-x="-8"
   inkscape:cy="141.5227"
   inkscape:cx="85.96428"
   inkscape:zoom="2.1203725"
   showgrid="false"
   id="namedview31"
   inkscape:window-height="1017"
   inkscape:window-width="1920"
   inkscape:pageshadow="2"
   inkscape:pageopacity="0"
   guidetolerance="10"
   gridtolerance="10"
   objecttolerance="10"
   borderopacity="1"
   bordercolor="#666666"
   pagecolor="#ffffff" />



<circle
   transform="matrix(0.91231512,0,0,0.91035811,11.210528,-5.1965014e-7)"
   r="128"
   cy="140.28799"
   cx="128"
   id="path935"
   style="fill:#000000;fill-opacity:0.25;stroke-width:0;stroke-miterlimit:4;stroke-dasharray:none;filter:url(#filter1121)" /><g
   transform="matrix(0.91231512,0,0,0.91035811,11.210523,-5.1965014e-7)"
   id="g933"><path
     id="path923"
     style="fill:#27aae0;fill-opacity:1"
     d="M 218.50781,37.492291 37.49219,218.50792 A 128,128 0 0 0 128,256.00011 a 128,128 0 0 0 128,-128 128,128 0 0 0 -37.49219,-90.507819 z" /><path
     id="path928"
     style="fill:#e74999;fill-opacity:1"
     d="M 127.67578,1.0265493e-4 A 128,128 0 0 0 0,128.0001 128,128 0 0 0 37.49219,218.50791 L 218.50781,37.492291 A 128,128 0 0 0 128,1.0265493e-4 a 128,128 0 0 0 -0.32422,0 z" /></g><path
   style="fill:#ffffff;stroke-width:5.83255"
   d="m 127.98686,169.98212 -8.46629,-7.69071 C 89.450669,135.08263 69.598691,117.13765 69.598691,95.114272 c 0,-17.944993 14.129938,-32.044622 32.113489,-32.044622 10.15954,0 19.91038,4.719295 26.27468,12.176951 6.36431,-7.457656 16.11513,-12.176951 26.27467,-12.176951 17.98356,0 32.1135,14.099629 32.1135,32.044622 0,22.023378 -19.85198,39.968358 -49.92188,67.235408 z"
   id="path65" /></svg>
