<?xml version="1.0" encoding="UTF-8" standalone="no"?>
<svg
   xmlns:dc="http://purl.org/dc/elements/1.1/"
   xmlns:cc="http://creativecommons.org/ns#"
   xmlns:rdf="http://www.w3.org/1999/02/22-rdf-syntax-ns#"
   xmlns:svg="http://www.w3.org/2000/svg"
   xmlns="http://www.w3.org/2000/svg"
   xmlns:xlink="http://www.w3.org/1999/xlink"
   xmlns:sodipodi="http://sodipodi.sourceforge.net/DTD/sodipodi-0.dtd"
   xmlns:inkscape="http://www.inkscape.org/namespaces/inkscape"
   version="1.1"
   id="Layer_1"
   x="0px"
   y="0px"
   width="256"
   height="256"
   viewBox="0 0 256.00001 256.00001"
   enable-background="new 0 0 141.73 141.73"
   xml:space="preserve"
   sodipodi:docname="icon.svg"
   inkscape:version="1.0 (4035a4fb49, 2020-05-01)"><title
   id="title1125">Love Material Icon</title><metadata
   id="metadata35"><rdf:RDF><cc:Work
       rdf:about=""><dc:format>image/svg+xml</dc:format><dc:type
         rdf:resource="http://purl.org/dc/dcmitype/StillImage" /><dc:title>Love Material Icon</dc:title></cc:Work></rdf:RDF></metadata><defs
   id="defs33"><linearGradient
   id="linearGradient1086"
   inkscape:collect="always"><stop
     id="stop1082"
     offset="0"
     style="stop-color:#000000;stop-opacity:0.2" /><stop
     id="stop1084"
     offset="1"
     style="stop-color:#000000;stop-opacity:0" /></linearGradient>
	
	

	
	
<linearGradient
   gradientTransform="matrix(0.8386513,0,0,0.8386513,20.610685,20.610695)"
   gradientUnits="userSpaceOnUse"
   y2="209.38474"
   x2="227.76952"
   y1="120.38493"
   x1="138.76971"
   id="linearGradient1088"
   xlink:href="#linearGradient1086"
   inkscape:collect="always" /><filter
   height="1.096"
   y="-0.048"
   width="1.096"
   x="-0.048"
   id="filter1100"
   style="color-interpolation-filters:sRGB"
   inkscape:collect="always"><feGaussianBlur
     id="feGaussianBlur1102"
     stdDeviation="5.12"
     inkscape:collect="always" /></filter></defs><sodipodi:namedview
   inkscape:document-rotation="0"
   pagecolor="#ffffff"
   bordercolor="#666666"
   borderopacity="1"
   objecttolerance="10"
   gridtolerance="10"
   guidetolerance="10"
   inkscape:pageopacity="0"
   inkscape:pageshadow="2"
   inkscape:window-width="1920"
   inkscape:window-height="1017"
   id="namedview31"
   showgrid="false"
   inkscape:zoom="0.97503396"
   inkscape:cx="96.934447"
   inkscape:cy="153.63823"
   inkscape:window-x="-8"
   inkscape:window-y="32"
   inkscape:window-maximized="1"
   inkscape:current-layer="Layer_1" />



<circle
   transform="scale(0.8386513)"
   style="fill:#000000;fill-opacity:0.3;stroke:none;stroke-width:2.46074;stroke-miterlimit:4;stroke-dasharray:none;stroke-opacity:1;filter:url(#filter1100)"
   id="circle1104"
   cx="152.57599"
   cy="164.864"
   r="128" /><circle
   transform="scale(0.8386513)"
   r="128"
   cy="152.576"
   cx="152.57599"
   id="path1090"
   style="fill:#000000;fill-opacity:0.3;stroke:none;stroke-width:2.46074;stroke-miterlimit:4;stroke-dasharray:none;stroke-opacity:1;filter:url(#filter1100)" /><g
   transform="matrix(0.8386513,0,0,0.8386513,20.610685,20.610695)"
   id="g933"><path
     d="M 218.50781,37.492291 37.49219,218.50792 A 128,128 0 0 0 128,256.00011 a 128,128 0 0 0 128,-128 128,128 0 0 0 -37.49219,-90.507819 z"
     style="fill:#27aae0;fill-opacity:1"
     id="path923" /><path
     d="M 127.67578,1.0265493e-4 A 128,128 0 0 0 0,128.0001 128,128 0 0 0 37.49219,218.50791 L 218.50781,37.492291 A 128,128 0 0 0 128,1.0265493e-4 a 128,128 0 0 0 -0.32422,0 z"
     style="fill:#e74999;fill-opacity:1"
     id="path928" /></g><path
   sodipodi:nodetypes="cccccc"
   d="m 173.35238,87.437599 -70.01661,65.142751 71.80134,71.80295 c 30.5025,-14.92545 52.14407,-43.40345 58.35505,-76.78901 L 192.9044,107.00653 Z"
   style="fill:url(#linearGradient1088);fill-opacity:1;stroke:none;stroke-width:0.838653px;stroke-linecap:butt;stroke-linejoin:miter;stroke-opacity:1"
   id="path1057" /><path
   id="path65"
   d="m 127.95806,177.20371 -7.80116,-7.08494 c -27.707507,-25.0656 -45.999848,-41.59709 -45.999848,-61.88573 0,-16.531494 13.019835,-29.520521 29.590548,-29.520521 9.36137,0 18.34616,4.347563 24.21046,11.217798 5.8643,-6.870235 14.84906,-11.217798 24.21044,-11.217798 16.57072,0 29.59055,12.989027 29.59055,29.520521 0,20.28864 -18.29234,36.82013 -45.99985,61.93941 z"
   style="fill:#ffffff;stroke-width:5.37372" /></svg>
